<?xml version="1.0" encoding="UTF-8"?>
<!-- Generator: Adobe Illustrator 18.0.0, SVG Export Plug-In . SVG Version: 6.00 Build 0)  -->
<!DOCTYPE svg PUBLIC "-//W3C//DTD SVG 1.1//EN" "http://www.w3.org/Graphics/SVG/1.1/DTD/svg11.dtd">
<svg version="1.1" id="Layer_1" xmlns="http://www.w3.org/2000/svg" xmlns:xlink="http://www.w3.org/1999/xlink" x="0px" y="0px" viewBox="0 0 400 79" enable-background="new 0 0 400 79" xml:space="preserve">
<ellipse opacity="0.42" fill="none" stroke="#B4B4B5" stroke-miterlimit="10" cx="39.9" cy="39.5" rx="32.3" ry="36.9"/>
<path fill="#E40984" d="M58.5,41.2H41.5V13.5l14.8-0.2c0.7,0,1.4,0.5,1.6,1.1l2.1,7.1c0,0,2.3,6.2,2.9,8.1c0,0,0,0,0,0  c0.1,0.3-0.1,0.7-0.4,0.9c-0.3,0.2-0.8,0.4-1.2,0.5L61.1,31c-0.2,0-0.5,0.1-0.7,0.2c0,0-0.1,0.1-0.2,0.1c-0.2,0.2-0.1,0.7,0.2,0.7  l0,0c0.4,0.3,0.6,0.7,0.6,1.1c0,0.2,0,0.4-0.1,0.5c-0.1,0.1-0.2,0.2-0.3,0.3c-0.1,0.1-0.3,0.1-0.3,0.3c0,0.1,0.2,0.2,0.2,0.2l0,0  c0.5,0.8,0.3,1.6-0.5,2.1l-0.6,0.2c-0.2,0.1-0.3,0.5-0.1,0.7l0.6,0.3C61.2,39.1,60.2,41.2,58.5,41.2z"/>
<path fill="#FFFFFF" d="M59.2,22.7c-0.1,0-0.2,0-0.3-0.1c-0.1-0.1-0.1,0-0.1-0.1c-0.3-0.2-0.5-0.3-0.8-0.3c-0.6,0-1.1,0.5-1.1,1.1  c0,0.6,0.5,1.1,1.1,1.1c0.4,0,0.6-0.2,0.9-0.4c0,0,0,0,0.1,0c0.2-0.2,0.4-0.3,0.5-0.4c0.3-0.3,1.2-0.2,1.3-0.1c0.2,0.1,0-0.4,0-0.6  c-0.1-0.4-0.3-0.6-0.4-0.5c-0.1,0.2-0.3,0.4-0.5,0.5C59.5,22.8,59.3,22.7,59.2,22.7z"/>
<g>
	<path fill="#FFFFFF" d="M49.9,41.4H32.8V13.2L47.6,13c0.7,0,1.4,0.5,1.6,1.2l2.1,7.3c0,0,2.3,6.3,2.9,8.2c0,0,0,0,0,0   c0.1,0.4-0.1,0.7-0.4,0.9c-0.3,0.2-0.8,0.4-1.2,0.5l-0.2,0.1c-0.2,0-0.5,0.1-0.7,0.2c0,0-0.1,0.1-0.2,0.1c-0.2,0.2-0.1,0.7,0.2,0.7   l0,0c0.4,0.3,0.6,0.7,0.6,1.1c0,0.2,0,0.4-0.1,0.5c-0.1,0.1-0.2,0.2-0.3,0.3c-0.1,0.1-0.3,0.1-0.3,0.3c0,0.1,0.2,0.2,0.2,0.2l0,0   c0.5,0.8,0.3,1.6-0.5,2.2L50.9,37c-0.2,0.2-0.3,0.5-0.1,0.7l0.6,0.3C52.5,39.3,51.6,41.4,49.9,41.4z"/>
	<path fill="#E40984" d="M50.5,22.7c-0.1,0-0.2,0-0.3-0.1c-0.1-0.1-0.1,0-0.1-0.1c-0.3-0.2-0.5-0.4-0.8-0.4c-0.6,0-1.1,0.5-1.1,1.1   s0.5,1.1,1.1,1.1c0.4,0,0.6-0.2,0.9-0.4c0,0,0,0,0.1,0c0.2-0.2,0.4-0.3,0.5-0.4c0.3-0.3,1.2-0.2,1.3-0.1c0.2,0.1,0-0.4,0-0.6   c-0.1-0.4-0.3-0.7-0.4-0.6c-0.1,0.2-0.3,0.4-0.5,0.5C50.9,22.8,50.7,22.7,50.5,22.7z"/>
</g>
<path fill="#BCBCC0" d="M40.9,41.2H23.9V13.7l14.8-0.2c0.7,0,1.4,0.5,1.6,1.1l2.1,7.1c0,0,2.3,6.2,2.9,8.1c0,0,0,0,0,0  c0.1,0.3-0.1,0.7-0.4,0.9c-0.3,0.2-0.8,0.4-1.2,0.5l-0.2,0.1c-0.2,0-0.5,0.1-0.7,0.2c0,0-0.1,0.1-0.2,0.1c-0.2,0.2-0.1,0.7,0.2,0.7  l0,0c0.4,0.3,0.6,0.7,0.6,1.1c0,0.2,0,0.4-0.1,0.5c-0.1,0.1-0.2,0.2-0.3,0.3c-0.1,0.1-0.3,0.1-0.3,0.3c0,0.1,0.2,0.2,0.2,0.2l0,0  c0.5,0.7,0.3,1.6-0.5,2.1l-0.6,0.2c-0.2,0.1-0.3,0.5-0.1,0.7l0.6,0.3C43.6,39.2,42.7,41.2,40.9,41.2z"/>
<path fill="#FFFFFF" d="M41.6,22.7c-0.1,0-0.2,0-0.3-0.1c-0.1-0.1-0.1,0-0.1-0.1c-0.3-0.2-0.5-0.3-0.8-0.3c-0.6,0-1.1,0.5-1.1,1.1  c0,0.6,0.5,1.1,1.1,1.1c0.4,0,0.6-0.2,0.9-0.4c0,0,0,0,0.1,0c0.2-0.2,0.4-0.3,0.5-0.4c0.3-0.3,1.2-0.2,1.3-0.1c0.2,0.1,0-0.4,0-0.6  c-0.1-0.4-0.3-0.6-0.4-0.5c-0.1,0.2-0.3,0.4-0.5,0.5C42,22.8,41.8,22.8,41.6,22.7z"/>
<polygon fill="#E40984" points="35.3,20.4 35.3,13.5 27.3,13.5 20.4,13.5 20.4,20.4 20.4,26.1 20.4,32.2 20.4,41.2 27.3,41.2   27.3,32.2 35.3,32.2 35.3,26.1 27.3,26.1 27.3,20.4 "/>
<g>
	<path fill="#E40984" d="M22.9,42.3v3.3h2.3v0.8h-2.3v6.5c0,0.6,0.1,1.1,0.3,1.3c0.2,0.2,0.4,0.3,0.7,0.3c0.2,0,0.5-0.1,0.7-0.2   c0.2-0.1,0.4-0.4,0.5-0.7h0.4c-0.3,0.7-0.6,1.2-1.1,1.6c-0.5,0.4-0.9,0.5-1.4,0.5c-0.3,0-0.7-0.1-1-0.3c-0.3-0.2-0.6-0.5-0.7-0.8   c-0.2-0.3-0.2-0.9-0.2-1.6v-6.7h-1.6V46c0.4-0.2,0.8-0.4,1.2-0.8c0.4-0.4,0.8-0.8,1.1-1.4c0.2-0.3,0.4-0.8,0.7-1.5H22.9z"/>
	<path fill="#E40984" d="M27.9,49.3c0,1.5,0.4,2.6,1.1,3.5c0.7,0.8,1.6,1.3,2.6,1.3c0.7,0,1.2-0.2,1.7-0.5c0.5-0.4,0.9-1,1.2-1.8   l0.3,0.2c-0.2,1-0.6,1.9-1.3,2.7c-0.7,0.8-1.7,1.2-2.8,1.2c-1.2,0-2.2-0.5-3.1-1.4c-0.9-0.9-1.3-2.2-1.3-3.8c0-1.7,0.4-3,1.3-4   c0.9-1,2-1.4,3.3-1.4c1.1,0,2,0.4,2.8,1.1c0.7,0.7,1.1,1.7,1.1,3H27.9z M27.9,48.7h4.6c0-0.6-0.1-1.1-0.2-1.4   c-0.2-0.4-0.5-0.7-0.8-1c-0.4-0.2-0.7-0.3-1.1-0.3c-0.6,0-1.1,0.2-1.6,0.7C28.2,47.2,27.9,47.8,27.9,48.7z"/>
	<path fill="#E40984" d="M41.8,54.1c-1,0.8-1.7,1.3-1.9,1.4c-0.4,0.2-0.8,0.3-1.3,0.3c-0.7,0-1.3-0.2-1.7-0.7   c-0.4-0.5-0.7-1.1-0.7-1.9c0-0.5,0.1-0.9,0.3-1.3c0.3-0.5,0.8-1,1.6-1.4c0.7-0.4,2-1,3.7-1.6v-0.4c0-1-0.2-1.7-0.5-2.1   c-0.3-0.4-0.8-0.6-1.4-0.6c-0.5,0-0.8,0.1-1.1,0.4c-0.3,0.2-0.4,0.5-0.4,0.9l0,0.6c0,0.3-0.1,0.6-0.3,0.8c-0.2,0.2-0.4,0.3-0.7,0.3   c-0.3,0-0.5-0.1-0.7-0.3c-0.2-0.2-0.3-0.4-0.3-0.8c0-0.6,0.3-1.2,1-1.7c0.6-0.5,1.5-0.8,2.7-0.8c0.9,0,1.6,0.1,2.2,0.4   c0.4,0.2,0.7,0.6,0.9,1.1c0.1,0.3,0.2,1,0.2,1.9v3.4c0,1,0,1.5,0.1,1.8c0,0.2,0.1,0.4,0.2,0.4c0.1,0.1,0.2,0.1,0.3,0.1   c0.1,0,0.2,0,0.3-0.1c0.2-0.1,0.4-0.4,0.9-0.8v0.6c-0.8,1.1-1.6,1.6-2.3,1.6c-0.4,0-0.6-0.1-0.9-0.4C41.9,55.1,41.8,54.7,41.8,54.1   z M41.8,53.4v-3.8c-1.1,0.4-1.8,0.7-2.1,0.9c-0.6,0.3-1,0.7-1.2,1c-0.2,0.3-0.4,0.7-0.4,1.1c0,0.5,0.2,1,0.5,1.3   c0.3,0.3,0.7,0.5,1.1,0.5C40.1,54.5,40.9,54.1,41.8,53.4z"/>
	<path fill="#E40984" d="M49,47.4c0.7-0.7,1.2-1.1,1.3-1.3c0.3-0.3,0.7-0.5,1.1-0.6c0.4-0.2,0.8-0.2,1.1-0.2c0.6,0,1.2,0.2,1.6,0.5   c0.5,0.4,0.8,0.9,0.9,1.6c0.7-0.9,1.4-1.4,1.9-1.7c0.5-0.3,1-0.4,1.6-0.4c0.5,0,1,0.1,1.4,0.4c0.4,0.3,0.7,0.7,1,1.3   c0.2,0.4,0.2,1.1,0.2,2v4.3c0,0.6,0,1.1,0.1,1.3c0.1,0.2,0.2,0.3,0.4,0.4c0.2,0.1,0.5,0.2,1,0.2v0.4h-4.9v-0.4h0.2   c0.4,0,0.8-0.1,1-0.3c0.2-0.1,0.3-0.3,0.4-0.6c0-0.1,0-0.5,0-1.1V49c0-0.8-0.1-1.4-0.3-1.7c-0.3-0.5-0.7-0.7-1.4-0.7   c-0.4,0-0.8,0.1-1.2,0.3c-0.4,0.2-0.9,0.6-1.4,1.1l0,0.1l0,0.5v4.8c0,0.7,0,1.1,0.1,1.3c0.1,0.2,0.2,0.3,0.4,0.4   c0.2,0.1,0.6,0.2,1.1,0.2v0.4h-5.1v-0.4c0.6,0,0.9-0.1,1.1-0.2c0.2-0.1,0.4-0.3,0.4-0.6c0-0.1,0.1-0.5,0.1-1.1V49   c0-0.8-0.1-1.4-0.4-1.8c-0.3-0.5-0.8-0.7-1.3-0.7c-0.4,0-0.8,0.1-1.2,0.3c-0.6,0.3-1.1,0.7-1.4,1.1v5.4c0,0.7,0,1.1,0.1,1.3   c0.1,0.2,0.2,0.3,0.4,0.4c0.2,0.1,0.5,0.1,1.1,0.1v0.4h-4.9v-0.4c0.5,0,0.8,0,1-0.1c0.2-0.1,0.3-0.3,0.4-0.5   c0.1-0.2,0.1-0.6,0.1-1.2v-3.8c0-1.1,0-1.8-0.1-2.1c-0.1-0.2-0.1-0.4-0.2-0.5c-0.1-0.1-0.3-0.1-0.4-0.1c-0.2,0-0.4,0.1-0.7,0.2   l-0.2-0.4l3-1.2H49V47.4z"/>
	<path fill="#E40984" d="M21.9,65.9v-5H21v-0.8h0.9v-0.6c0-0.6,0.2-1.1,0.5-1.4c0.3-0.3,0.8-0.5,1.4-0.5c0.2,0,0.5,0,0.7,0.1   l-0.1,0.8c-0.2,0-0.3,0-0.5,0c-0.3,0-0.6,0.1-0.7,0.3c-0.2,0.2-0.3,0.5-0.3,0.8v0.6h1.2v0.8h-1.2v5H21.9z"/>
	<path fill="#E40984" d="M28.1,60.9c-0.2,0-0.3,0-0.5,0c-0.7,0-1.1,0.3-1.3,0.8v4.1h-1v-5.8h1l0,0.7c0.3-0.5,0.8-0.8,1.4-0.8   c0.2,0,0.3,0,0.4,0.1V60.9z"/>
	<path fill="#E40984" d="M28.6,62.9c0-0.6,0.1-1.1,0.3-1.5c0.2-0.5,0.5-0.8,0.9-1.1c0.4-0.2,0.9-0.4,1.4-0.4c0.8,0,1.4,0.3,1.9,0.8   c0.5,0.5,0.7,1.3,0.7,2.2V63c0,0.6-0.1,1.1-0.3,1.5c-0.2,0.4-0.5,0.8-0.9,1.1c-0.4,0.3-0.9,0.4-1.4,0.4c-0.8,0-1.4-0.3-1.9-0.8   C28.9,64.6,28.6,63.9,28.6,62.9L28.6,62.9z M29.6,63c0,0.6,0.1,1.2,0.4,1.6c0.3,0.4,0.7,0.6,1.2,0.6c0.5,0,0.9-0.2,1.2-0.6   c0.3-0.4,0.4-0.9,0.4-1.7c0-0.6-0.2-1.2-0.5-1.5s-0.7-0.6-1.2-0.6c-0.5,0-0.9,0.2-1.2,0.6C29.8,61.7,29.6,62.3,29.6,63z"/>
	<path fill="#E40984" d="M36.1,60.1l0,0.7c0.4-0.6,1-0.8,1.7-0.8c1.2,0,1.8,0.7,1.9,2.1v3.8h-1V62c0-0.4-0.1-0.7-0.3-0.9   c-0.2-0.2-0.5-0.3-0.9-0.3c-0.3,0-0.6,0.1-0.8,0.3c-0.2,0.2-0.4,0.4-0.6,0.7v4.1h-1v-5.8H36.1z"/>
	<path fill="#E40984" d="M42.6,58.6v1.4h1.1v0.8h-1.1v3.6c0,0.2,0,0.4,0.1,0.5c0.1,0.1,0.3,0.2,0.5,0.2c0.1,0,0.3,0,0.5-0.1v0.8   c-0.3,0.1-0.5,0.1-0.8,0.1c-0.4,0-0.8-0.1-1-0.4c-0.2-0.3-0.3-0.7-0.3-1.1v-3.6h-1.1v-0.8h1.1v-1.4H42.6z"/>
	<path fill="#E40984" d="M45.9,65.9h-1v-8.3h1V65.9z"/>
	<path fill="#E40984" d="M47.5,58.5c0-0.2,0-0.3,0.1-0.4c0.1-0.1,0.2-0.2,0.4-0.2c0.2,0,0.3,0.1,0.4,0.2c0.1,0.1,0.2,0.2,0.2,0.4   c0,0.2-0.1,0.3-0.2,0.4c-0.1,0.1-0.2,0.2-0.4,0.2c-0.2,0-0.3-0.1-0.4-0.2C47.5,58.8,47.5,58.7,47.5,58.5z M48.6,65.9h-1v-5.8h1   V65.9z"/>
	<path fill="#E40984" d="M51.1,60.1l0,0.7c0.4-0.6,1-0.8,1.7-0.8c1.2,0,1.8,0.7,1.9,2.1v3.8h-1V62c0-0.4-0.1-0.7-0.3-0.9   c-0.2-0.2-0.5-0.3-0.9-0.3c-0.3,0-0.6,0.1-0.8,0.3c-0.2,0.2-0.4,0.4-0.6,0.7v4.1h-1v-5.8H51.1z"/>
	<path fill="#E40984" d="M58.6,66c-0.8,0-1.4-0.3-1.9-0.8C56.2,64.7,56,64,56,63.1v-0.2c0-0.6,0.1-1.1,0.3-1.5   c0.2-0.5,0.5-0.8,0.9-1.1c0.4-0.3,0.8-0.4,1.3-0.4c0.8,0,1.3,0.2,1.8,0.7c0.4,0.5,0.6,1.2,0.6,2.1v0.4H57c0,0.6,0.2,1,0.5,1.4   c0.3,0.4,0.7,0.5,1.2,0.5c0.4,0,0.6-0.1,0.9-0.2c0.2-0.1,0.5-0.3,0.6-0.6l0.6,0.5C60.3,65.6,59.6,66,58.6,66z M58.5,60.8   c-0.4,0-0.7,0.1-1,0.4c-0.3,0.3-0.4,0.7-0.5,1.2h2.9v-0.1c0-0.5-0.2-0.9-0.4-1.2C59.3,60.9,58.9,60.8,58.5,60.8z"/>
</g>
<g>
	<path d="M63.6,8.2c0-1,0.2-2,0.7-2.8c0.5-0.9,1.1-1.6,2-2.1C67.1,2.8,68,2.5,69,2.5s1.9,0.3,2.7,0.8c0.8,0.5,1.5,1.2,2,2.1   c0.5,0.9,0.7,1.8,0.7,2.8c0,1-0.2,1.9-0.7,2.8c-0.5,0.9-1.1,1.6-1.9,2.1c-0.8,0.5-1.8,0.8-2.8,0.8c-1,0-1.9-0.3-2.8-0.8   c-0.8-0.5-1.5-1.2-1.9-2.1C63.8,10.1,63.6,9.2,63.6,8.2z M64.5,8.2c0,0.9,0.2,1.7,0.6,2.4c0.4,0.7,1,1.3,1.7,1.7S68.2,13,69,13   c0.8,0,1.6-0.2,2.3-0.6c0.7-0.4,1.2-1,1.6-1.7c0.4-0.7,0.6-1.5,0.6-2.4c0-0.9-0.2-1.7-0.6-2.4c-0.4-0.7-0.9-1.3-1.6-1.7   c-0.7-0.4-1.5-0.6-2.3-0.6c-0.8,0-1.6,0.2-2.3,0.6c-0.7,0.4-1.2,1-1.7,1.7C64.7,6.5,64.5,7.3,64.5,8.2z M67.9,8.8v2.6h-1.1V4.9h2.1   c0.8,0,1.4,0.2,1.8,0.5c0.4,0.3,0.6,0.8,0.6,1.4c0,0.6-0.3,1.1-1,1.4C71,8.5,71.3,9,71.3,9.8v0.5c0,0.4,0,0.7,0.1,0.9v0.1h-1.1   c-0.1-0.2-0.1-0.5-0.1-1c0-0.5,0-0.7,0-0.8c-0.1-0.5-0.4-0.7-1-0.8H67.9z M67.9,7.8H69c0.4,0,0.7-0.1,0.9-0.3   c0.2-0.2,0.3-0.4,0.3-0.7c0-0.4-0.1-0.6-0.3-0.8c-0.2-0.2-0.5-0.2-1.1-0.2h-1V7.8z"/>
</g>
<g>
	<path fill="#E40984" d="M101.8,20.8l0.2,4.9h-0.6c-0.1-0.9-0.3-1.5-0.5-1.8c-0.3-0.6-0.7-1-1.3-1.3c-0.5-0.3-1.2-0.4-2.1-0.4h-2.9   V38c0,1.3,0.1,2.1,0.4,2.4c0.4,0.4,1,0.6,1.8,0.6h0.7v0.6h-8.8V41h0.7c0.9,0,1.5-0.3,1.9-0.8c0.2-0.3,0.3-1.1,0.3-2.2V22.1h-2.5   c-1,0-1.7,0.1-2.1,0.2c-0.5,0.2-1,0.6-1.4,1.1c-0.4,0.6-0.6,1.3-0.7,2.2h-0.6l0.2-4.9H101.8z"/>
	<path fill="#E40984" d="M103.9,32.8c0,2.1,0.5,3.7,1.5,4.9c1,1.2,2.2,1.8,3.6,1.8c0.9,0,1.7-0.3,2.4-0.8c0.7-0.5,1.3-1.4,1.7-2.6   l0.5,0.3c-0.2,1.4-0.8,2.7-1.9,3.8c-1,1.2-2.3,1.7-3.9,1.7c-1.7,0-3.1-0.7-4.3-2c-1.2-1.3-1.8-3.1-1.8-5.3c0-2.4,0.6-4.3,1.9-5.6   c1.2-1.3,2.8-2,4.6-2c1.6,0,2.9,0.5,3.9,1.6c1,1,1.5,2.4,1.5,4.2H103.9z M103.9,31.9h6.5c-0.1-0.9-0.2-1.5-0.3-1.9   c-0.3-0.6-0.6-1-1.1-1.4c-0.5-0.3-1-0.5-1.6-0.5c-0.9,0-1.6,0.3-2.3,1C104.4,29.8,104.1,30.8,103.9,31.9z"/>
	<path fill="#E40984" d="M123.5,39.6c-1.4,1.1-2.4,1.8-2.7,1.9c-0.6,0.3-1.1,0.4-1.8,0.4c-1,0-1.8-0.3-2.4-1   c-0.6-0.7-0.9-1.5-0.9-2.6c0-0.7,0.2-1.3,0.5-1.8c0.4-0.7,1.2-1.4,2.2-2c1-0.6,2.8-1.4,5.2-2.2v-0.6c0-1.4-0.2-2.4-0.7-2.9   c-0.4-0.5-1.1-0.8-1.9-0.8c-0.6,0-1.2,0.2-1.5,0.5c-0.4,0.3-0.6,0.7-0.6,1.2l0,0.9c0,0.5-0.1,0.8-0.4,1.1c-0.2,0.3-0.6,0.4-0.9,0.4   c-0.4,0-0.7-0.1-0.9-0.4c-0.2-0.3-0.4-0.6-0.4-1.1c0-0.9,0.5-1.7,1.4-2.4c0.9-0.7,2.2-1.1,3.8-1.1c1.2,0,2.3,0.2,3.1,0.6   c0.6,0.3,1,0.8,1.3,1.5c0.2,0.4,0.3,1.3,0.3,2.7v4.8c0,1.3,0,2.2,0.1,2.5c0.1,0.3,0.1,0.5,0.3,0.6c0.1,0.1,0.3,0.2,0.4,0.2   c0.2,0,0.3,0,0.4-0.1c0.2-0.1,0.6-0.5,1.2-1.1v0.9c-1.1,1.5-2.2,2.3-3.3,2.3c-0.5,0-0.9-0.2-1.2-0.5   C123.7,41,123.5,40.4,123.5,39.6z M123.5,38.6v-5.4c-1.5,0.6-2.5,1.1-3,1.3c-0.8,0.5-1.4,0.9-1.7,1.4c-0.3,0.5-0.5,1-0.5,1.6   c0,0.7,0.2,1.4,0.7,1.8c0.4,0.5,0.9,0.7,1.5,0.7C121.2,40.1,122.3,39.6,123.5,38.6z"/>
	<path fill="#E40984" d="M133.7,30.1c1-1,1.6-1.6,1.8-1.8c0.5-0.4,1-0.7,1.5-0.9c0.5-0.2,1.1-0.3,1.6-0.3c0.9,0,1.6,0.3,2.3,0.8   c0.6,0.5,1.1,1.3,1.3,2.2c1.1-1.2,1.9-2,2.7-2.4c0.7-0.4,1.5-0.6,2.2-0.6c0.7,0,1.4,0.2,2,0.6c0.6,0.4,1,1,1.4,1.9   c0.2,0.6,0.3,1.5,0.3,2.8v6.1c0,0.9,0.1,1.5,0.2,1.8c0.1,0.2,0.3,0.4,0.6,0.6c0.3,0.2,0.7,0.2,1.4,0.2v0.6h-6.9v-0.6h0.3   c0.6,0,1.1-0.1,1.4-0.4c0.2-0.2,0.4-0.4,0.5-0.8c0-0.2,0.1-0.7,0.1-1.5v-6.1c0-1.1-0.1-2-0.4-2.4c-0.4-0.7-1-1-1.9-1   c-0.5,0-1.1,0.1-1.6,0.4c-0.5,0.3-1.2,0.8-2,1.5l0,0.2l0,0.7v6.7c0,1,0.1,1.6,0.2,1.8c0.1,0.2,0.3,0.4,0.6,0.6   c0.3,0.2,0.8,0.2,1.5,0.2v0.6h-7.1v-0.6c0.8,0,1.3-0.1,1.6-0.3c0.3-0.2,0.5-0.5,0.6-0.8c0.1-0.2,0.1-0.7,0.1-1.5v-6.1   c0-1.1-0.2-2-0.5-2.5c-0.5-0.7-1.1-1-1.9-1c-0.6,0-1.1,0.1-1.6,0.4c-0.9,0.5-1.5,1-2,1.5v7.5c0,0.9,0.1,1.5,0.2,1.8   c0.1,0.3,0.3,0.5,0.6,0.6c0.3,0.1,0.8,0.2,1.5,0.2v0.6h-7v-0.6c0.6,0,1.1-0.1,1.4-0.2c0.3-0.1,0.5-0.4,0.6-0.7   c0.1-0.3,0.2-0.9,0.2-1.8v-5.4c0-1.5,0-2.5-0.1-3c-0.1-0.3-0.2-0.6-0.3-0.7c-0.2-0.1-0.4-0.2-0.6-0.2c-0.3,0-0.6,0.1-1,0.2   l-0.2-0.6l4.2-1.7h0.7V30.1z"/>
	<path fill="#E40984" d="M167.3,21.9v8.2h3.8c0.9,0,1.5-0.2,1.9-0.6c0.4-0.4,0.7-1.1,0.8-2.3h0.6v7.1h-0.6c0-0.8-0.1-1.4-0.3-1.8   c-0.2-0.4-0.5-0.7-0.8-0.9c-0.4-0.2-0.9-0.3-1.6-0.3h-3.8v6.5c0,1.1,0.1,1.8,0.2,2.1c0.1,0.3,0.3,0.5,0.6,0.7   c0.5,0.2,0.9,0.4,1.4,0.4h0.8v0.6h-8.9V41h0.7c0.9,0,1.5-0.3,1.9-0.8c0.2-0.3,0.4-1.1,0.4-2.4V24.5c0-1.1-0.1-1.8-0.2-2.1   c-0.1-0.3-0.3-0.5-0.6-0.7c-0.4-0.2-0.9-0.4-1.4-0.4h-0.7v-0.6h15.5l0.2,4.6h-0.5c-0.3-1-0.6-1.7-0.9-2.1c-0.4-0.5-0.8-0.8-1.3-1   c-0.5-0.2-1.3-0.3-2.4-0.3H167.3z"/>
	<path fill="#E40984" d="M183.5,27.1v3.2c1.2-2.1,2.4-3.2,3.6-3.2c0.6,0,1,0.2,1.4,0.5c0.4,0.3,0.6,0.7,0.6,1.2c0,0.4-0.1,0.7-0.4,1   c-0.3,0.3-0.6,0.4-1,0.4c-0.4,0-0.8-0.2-1.2-0.5c-0.4-0.4-0.8-0.5-1-0.5c-0.2,0-0.4,0.1-0.6,0.3c-0.5,0.4-0.9,1.1-1.4,2.1v6.7   c0,0.8,0.1,1.4,0.3,1.8c0.1,0.3,0.4,0.5,0.7,0.7c0.3,0.2,0.8,0.3,1.5,0.3v0.6h-7.2v-0.6c0.7,0,1.2-0.1,1.6-0.3   c0.3-0.2,0.4-0.4,0.5-0.8c0.1-0.2,0.1-0.7,0.1-1.5V33c0-1.6,0-2.6-0.1-2.9c-0.1-0.3-0.2-0.5-0.4-0.7c-0.2-0.1-0.4-0.2-0.7-0.2   c-0.3,0-0.7,0.1-1.1,0.2l-0.2-0.6l4.3-1.7H183.5z"/>
	<path fill="#E40984" d="M196.7,27.1c2.1,0,3.8,0.8,5.1,2.4c1.1,1.4,1.6,3,1.6,4.8c0,1.3-0.3,2.5-0.9,3.8c-0.6,1.3-1.4,2.3-2.5,2.9   c-1.1,0.7-2.2,1-3.5,1c-2.1,0-3.8-0.8-5.1-2.5c-1.1-1.4-1.6-3-1.6-4.8c0-1.3,0.3-2.6,1-3.9c0.6-1.3,1.5-2.2,2.5-2.8   C194.5,27.4,195.6,27.1,196.7,27.1z M196.3,28.1c-0.5,0-1.1,0.2-1.6,0.5c-0.5,0.3-1,0.9-1.3,1.7c-0.3,0.8-0.5,1.8-0.5,3.1   c0,2,0.4,3.8,1.2,5.3c0.8,1.5,1.9,2.2,3.2,2.2c1,0,1.8-0.4,2.5-1.2c0.6-0.8,1-2.2,1-4.2c0-2.5-0.5-4.5-1.6-5.9   C198.3,28.6,197.4,28.1,196.3,28.1z"/>
	<path fill="#E40984" d="M209.7,30.1c1.6-2,3.2-3,4.7-3c0.8,0,1.4,0.2,2,0.6c0.6,0.4,1,1,1.3,1.9c0.2,0.6,0.3,1.6,0.3,2.8v6   c0,0.9,0.1,1.5,0.2,1.8c0.1,0.3,0.3,0.5,0.5,0.6c0.3,0.1,0.7,0.2,1.4,0.2v0.6h-7v-0.6h0.3c0.7,0,1.1-0.1,1.4-0.3   c0.3-0.2,0.4-0.5,0.5-0.9c0-0.2,0.1-0.6,0.1-1.4v-5.8c0-1.3-0.2-2.2-0.5-2.8c-0.3-0.6-0.9-0.9-1.7-0.9c-1.2,0-2.4,0.7-3.6,2v7.4   c0,1,0.1,1.5,0.2,1.8c0.1,0.3,0.3,0.5,0.6,0.7c0.3,0.1,0.8,0.2,1.5,0.2v0.6h-7v-0.6h0.3c0.7,0,1.2-0.2,1.5-0.5   c0.3-0.4,0.4-1.1,0.4-2.1v-5.2c0-1.7,0-2.7-0.1-3.1c-0.1-0.4-0.2-0.6-0.4-0.8c-0.2-0.1-0.4-0.2-0.6-0.2c-0.3,0-0.6,0.1-1,0.2   l-0.2-0.6l4.2-1.7h0.7V30.1z"/>
	<path fill="#E40984" d="M225.4,22.9v4.6h3.3v1.1h-3.3v9.1c0,0.9,0.1,1.5,0.4,1.8c0.3,0.3,0.6,0.5,1,0.5c0.3,0,0.7-0.1,1-0.3   c0.3-0.2,0.6-0.5,0.7-0.9h0.6c-0.4,1-0.9,1.8-1.5,2.3c-0.7,0.5-1.3,0.8-2,0.8c-0.5,0-0.9-0.1-1.4-0.4c-0.5-0.3-0.8-0.6-1-1.1   c-0.2-0.5-0.3-1.2-0.3-2.3v-9.5h-2.2v-0.5c0.6-0.2,1.1-0.6,1.7-1.1c0.6-0.5,1.1-1.2,1.6-1.9c0.2-0.4,0.6-1.1,1-2.1H225.4z"/>
	<path fill="#E40984" d="M234.9,19.8v18.7c0,0.9,0.1,1.5,0.2,1.8c0.1,0.3,0.3,0.5,0.6,0.7c0.3,0.1,0.8,0.2,1.5,0.2v0.6h-6.9v-0.6   c0.6,0,1.1-0.1,1.3-0.2c0.2-0.1,0.4-0.4,0.6-0.7c0.1-0.3,0.2-0.9,0.2-1.8V25.6c0-1.6,0-2.6-0.1-2.9c-0.1-0.4-0.2-0.6-0.3-0.7   c-0.2-0.1-0.4-0.2-0.6-0.2c-0.3,0-0.6,0.1-1,0.2l-0.3-0.5l4.2-1.7H234.9z"/>
	<path fill="#E40984" d="M243.7,27.1v11.3c0,0.9,0.1,1.5,0.2,1.8c0.1,0.3,0.3,0.5,0.6,0.7c0.3,0.1,0.7,0.2,1.4,0.2v0.6H239v-0.6   c0.7,0,1.1-0.1,1.4-0.2c0.2-0.1,0.4-0.4,0.6-0.7c0.1-0.3,0.2-0.9,0.2-1.8V33c0-1.5,0-2.5-0.1-3c-0.1-0.3-0.2-0.6-0.3-0.7   c-0.2-0.1-0.4-0.2-0.6-0.2c-0.3,0-0.6,0.1-1,0.2l-0.2-0.6l4.2-1.7H243.7z M242.4,19.8c0.4,0,0.8,0.2,1.1,0.5   c0.3,0.3,0.5,0.7,0.5,1.1c0,0.4-0.2,0.8-0.5,1.1c-0.3,0.3-0.7,0.5-1.1,0.5c-0.4,0-0.8-0.2-1.1-0.5c-0.3-0.3-0.5-0.7-0.5-1.1   c0-0.4,0.2-0.8,0.5-1.1C241.6,19.9,242,19.8,242.4,19.8z"/>
	<path fill="#E40984" d="M251.7,30.1c1.6-2,3.2-3,4.7-3c0.8,0,1.4,0.2,2,0.6c0.6,0.4,1,1,1.3,1.9c0.2,0.6,0.3,1.6,0.3,2.8v6   c0,0.9,0.1,1.5,0.2,1.8c0.1,0.3,0.3,0.5,0.5,0.6c0.3,0.1,0.7,0.2,1.4,0.2v0.6h-7v-0.6h0.3c0.7,0,1.1-0.1,1.4-0.3   c0.3-0.2,0.4-0.5,0.5-0.9c0-0.2,0.1-0.6,0.1-1.4v-5.8c0-1.3-0.2-2.2-0.5-2.8c-0.3-0.6-0.9-0.9-1.7-0.9c-1.2,0-2.4,0.7-3.6,2v7.4   c0,1,0.1,1.5,0.2,1.8c0.1,0.3,0.3,0.5,0.6,0.7c0.3,0.1,0.8,0.2,1.5,0.2v0.6h-7v-0.6h0.3c0.7,0,1.2-0.2,1.5-0.5   c0.3-0.4,0.4-1.1,0.4-2.1v-5.2c0-1.7,0-2.7-0.1-3.1c-0.1-0.4-0.2-0.6-0.4-0.8c-0.2-0.1-0.4-0.2-0.6-0.2c-0.3,0-0.6,0.1-1,0.2   l-0.2-0.6l4.2-1.7h0.7V30.1z"/>
	<path fill="#E40984" d="M265.7,32.8c0,2.1,0.5,3.7,1.5,4.9c1,1.2,2.2,1.8,3.6,1.8c0.9,0,1.7-0.3,2.4-0.8c0.7-0.5,1.3-1.4,1.7-2.6   l0.5,0.3c-0.2,1.4-0.8,2.7-1.9,3.8c-1,1.2-2.3,1.7-3.9,1.7c-1.7,0-3.1-0.7-4.3-2c-1.2-1.3-1.8-3.1-1.8-5.3c0-2.4,0.6-4.3,1.9-5.6   s2.8-2,4.6-2c1.6,0,2.9,0.5,3.9,1.6c1,1,1.5,2.4,1.5,4.2H265.7z M265.7,31.9h6.5c-0.1-0.9-0.2-1.5-0.3-1.9c-0.3-0.6-0.6-1-1.1-1.4   c-0.5-0.3-1-0.5-1.6-0.5c-0.9,0-1.6,0.3-2.3,1C266.2,29.8,265.8,30.8,265.7,31.9z"/>
	<path fill="#E40984" d="M302.2,35.8l0.5,0.1l-1.8,5.7h-16.1V41h0.8c0.9,0,1.5-0.3,1.9-0.9c0.2-0.3,0.3-1.1,0.3-2.3V24.5   c0-1.3-0.1-2.1-0.4-2.4c-0.4-0.5-1-0.7-1.8-0.7h-0.8v-0.6h9.4v0.6c-1.1,0-1.9,0.1-2.3,0.3c-0.4,0.2-0.8,0.5-0.9,0.8   c-0.2,0.3-0.2,1.1-0.2,2.4v13.1c0,0.9,0.1,1.4,0.2,1.8c0.1,0.2,0.3,0.4,0.6,0.5c0.3,0.1,1.1,0.2,2.4,0.2h1.5c1.6,0,2.7-0.1,3.4-0.4   c0.6-0.2,1.2-0.7,1.8-1.3C301.1,38.1,301.7,37.1,302.2,35.8z"/>
	<path fill="#E40984" d="M309.2,27.1v11.3c0,0.9,0.1,1.5,0.2,1.8c0.1,0.3,0.3,0.5,0.6,0.7c0.3,0.1,0.7,0.2,1.4,0.2v0.6h-6.8v-0.6   c0.7,0,1.1-0.1,1.4-0.2c0.2-0.1,0.4-0.4,0.6-0.7c0.1-0.3,0.2-0.9,0.2-1.8V33c0-1.5,0-2.5-0.1-3c-0.1-0.3-0.2-0.6-0.3-0.7   c-0.2-0.1-0.4-0.2-0.6-0.2c-0.3,0-0.6,0.1-1,0.2l-0.2-0.6l4.2-1.7H309.2z M307.9,19.8c0.4,0,0.8,0.2,1.1,0.5   c0.3,0.3,0.5,0.7,0.5,1.1c0,0.4-0.2,0.8-0.5,1.1c-0.3,0.3-0.7,0.5-1.1,0.5c-0.4,0-0.8-0.2-1.1-0.5c-0.3-0.3-0.5-0.7-0.5-1.1   c0-0.4,0.2-0.8,0.5-1.1C307.1,19.9,307.5,19.8,307.9,19.8z"/>
	<path fill="#E40984" d="M317.3,30.1c1-1,1.6-1.6,1.8-1.8c0.5-0.4,1-0.7,1.5-0.9c0.5-0.2,1.1-0.3,1.6-0.3c0.9,0,1.6,0.3,2.3,0.8   c0.6,0.5,1.1,1.3,1.3,2.2c1.1-1.2,1.9-2,2.7-2.4c0.7-0.4,1.5-0.6,2.2-0.6c0.7,0,1.4,0.2,2,0.6c0.6,0.4,1,1,1.4,1.9   c0.2,0.6,0.3,1.5,0.3,2.8v6.1c0,0.9,0.1,1.5,0.2,1.8c0.1,0.2,0.3,0.4,0.6,0.6c0.3,0.2,0.7,0.2,1.4,0.2v0.6h-6.9v-0.6h0.3   c0.6,0,1.1-0.1,1.4-0.4c0.2-0.2,0.4-0.4,0.5-0.8c0-0.2,0.1-0.7,0.1-1.5v-6.1c0-1.1-0.1-2-0.4-2.4c-0.4-0.7-1-1-1.9-1   c-0.5,0-1.1,0.1-1.6,0.4c-0.5,0.3-1.2,0.8-2,1.5l0,0.2l0,0.7v6.7c0,1,0.1,1.6,0.2,1.8c0.1,0.2,0.3,0.4,0.6,0.6   c0.3,0.2,0.8,0.2,1.5,0.2v0.6H321v-0.6c0.8,0,1.3-0.1,1.6-0.3c0.3-0.2,0.5-0.5,0.6-0.8c0.1-0.2,0.1-0.7,0.1-1.5v-6.1   c0-1.1-0.2-2-0.5-2.5c-0.5-0.7-1.1-1-1.9-1c-0.6,0-1.1,0.1-1.6,0.4c-0.9,0.5-1.5,1-2,1.5v7.5c0,0.9,0.1,1.5,0.2,1.8   c0.1,0.3,0.3,0.5,0.6,0.6c0.3,0.1,0.8,0.2,1.5,0.2v0.6h-7v-0.6c0.6,0,1.1-0.1,1.4-0.2c0.3-0.1,0.5-0.4,0.6-0.7   c0.1-0.3,0.2-0.9,0.2-1.8v-5.4c0-1.5,0-2.5-0.1-3c-0.1-0.3-0.2-0.6-0.3-0.7c-0.2-0.1-0.4-0.2-0.6-0.2c-0.3,0-0.6,0.1-1,0.2   l-0.2-0.6l4.2-1.7h0.7V30.1z"/>
	<path fill="#E40984" d="M342.4,27.1v11.3c0,0.9,0.1,1.5,0.2,1.8c0.1,0.3,0.3,0.5,0.6,0.7c0.3,0.1,0.7,0.2,1.4,0.2v0.6h-6.8v-0.6   c0.7,0,1.1-0.1,1.4-0.2c0.2-0.1,0.4-0.4,0.6-0.7c0.1-0.3,0.2-0.9,0.2-1.8V33c0-1.5,0-2.5-0.1-3c-0.1-0.3-0.2-0.6-0.3-0.7   c-0.2-0.1-0.4-0.2-0.6-0.2c-0.3,0-0.6,0.1-1,0.2l-0.2-0.6l4.2-1.7H342.4z M341.2,19.8c0.4,0,0.8,0.2,1.1,0.5   c0.3,0.3,0.5,0.7,0.5,1.1c0,0.4-0.2,0.8-0.5,1.1c-0.3,0.3-0.7,0.5-1.1,0.5s-0.8-0.2-1.1-0.5c-0.3-0.3-0.5-0.7-0.5-1.1   c0-0.4,0.2-0.8,0.5-1.1C340.4,19.9,340.7,19.8,341.2,19.8z"/>
	<path fill="#E40984" d="M350.4,22.9v4.6h3.3v1.1h-3.3v9.1c0,0.9,0.1,1.5,0.4,1.8c0.3,0.3,0.6,0.5,1,0.5c0.3,0,0.7-0.1,1-0.3   c0.3-0.2,0.6-0.5,0.7-0.9h0.6c-0.4,1-0.9,1.8-1.5,2.3c-0.7,0.5-1.3,0.8-2,0.8c-0.5,0-0.9-0.1-1.4-0.4c-0.5-0.3-0.8-0.6-1-1.1   c-0.2-0.5-0.3-1.2-0.3-2.3v-9.5h-2.2v-0.5c0.6-0.2,1.1-0.6,1.7-1.1c0.6-0.5,1.1-1.2,1.6-1.9c0.2-0.4,0.6-1.1,1-2.1H350.4z"/>
	<path fill="#E40984" d="M357.4,32.8c0,2.1,0.5,3.7,1.5,4.9c1,1.2,2.2,1.8,3.6,1.8c0.9,0,1.7-0.3,2.4-0.8c0.7-0.5,1.3-1.4,1.7-2.6   l0.5,0.3c-0.2,1.4-0.8,2.7-1.9,3.8c-1,1.2-2.3,1.7-3.9,1.7c-1.7,0-3.1-0.7-4.3-2c-1.2-1.3-1.8-3.1-1.8-5.3c0-2.4,0.6-4.3,1.9-5.6   s2.8-2,4.6-2c1.6,0,2.9,0.5,3.9,1.6c1,1,1.5,2.4,1.5,4.2H357.4z M357.4,31.9h6.5c-0.1-0.9-0.2-1.5-0.3-1.9c-0.3-0.6-0.6-1-1.1-1.4   c-0.5-0.3-1-0.5-1.6-0.5c-0.9,0-1.6,0.3-2.3,1C358,29.8,357.6,30.8,357.4,31.9z"/>
	<path fill="#E40984" d="M379,40c-0.7,0.7-1.4,1.2-2,1.5c-0.7,0.3-1.4,0.5-2.1,0.5c-1.5,0-2.9-0.6-4-1.9c-1.1-1.3-1.7-2.9-1.7-5   c0-2,0.6-3.9,1.9-5.5c1.3-1.7,2.9-2.5,4.9-2.5c1.2,0,2.3,0.4,3.1,1.2v-2.6c0-1.6,0-2.6-0.1-3c-0.1-0.4-0.2-0.6-0.4-0.8   c-0.2-0.1-0.4-0.2-0.6-0.2c-0.3,0-0.6,0.1-1.1,0.2l-0.2-0.5l4.2-1.7h0.7V36c0,1.7,0,2.7,0.1,3c0.1,0.4,0.2,0.6,0.4,0.8   c0.2,0.1,0.4,0.2,0.6,0.2c0.3,0,0.6-0.1,1.1-0.3l0.2,0.5l-4.2,1.7H379V40z M379,39v-7.3c-0.1-0.7-0.2-1.3-0.6-1.9   c-0.3-0.6-0.7-1-1.2-1.3c-0.5-0.3-1-0.4-1.5-0.4c-0.9,0-1.7,0.4-2.4,1.2c-0.9,1.1-1.4,2.6-1.4,4.7c0,2.1,0.5,3.7,1.4,4.8   c0.9,1.1,1.9,1.7,3,1.7C377.2,40.4,378.1,39.9,379,39z"/>
</g>
<g>
	<path d="M86.8,58h-4.1l-0.9,2.6h-1.3l3.8-9.8h1.1l3.8,9.8h-1.3L86.8,58z M83.1,57h3.3l-1.7-4.6L83.1,57z"/>
	<path d="M107.5,51.8h-3.2v8.8h-1.3v-8.8h-3.2v-1.1h7.6V51.8z"/>
	<path d="M114.7,60.7c-1,0-1.8-0.3-2.4-1c-0.6-0.6-0.9-1.5-0.9-2.6v-0.2c0-0.7,0.1-1.4,0.4-1.9c0.3-0.6,0.7-1,1.2-1.3   c0.5-0.3,1-0.5,1.6-0.5c0.9,0,1.7,0.3,2.2,0.9s0.8,1.5,0.8,2.7v0.5h-4.9c0,0.7,0.2,1.3,0.6,1.7c0.4,0.4,0.9,0.7,1.5,0.7   c0.4,0,0.8-0.1,1.1-0.3c0.3-0.2,0.6-0.4,0.8-0.7l0.8,0.6C116.9,60.3,116,60.7,114.7,60.7z M114.6,54.2c-0.5,0-0.9,0.2-1.3,0.6   s-0.6,0.9-0.6,1.5h3.7v-0.1c0-0.6-0.2-1.1-0.5-1.5S115.1,54.2,114.6,54.2z"/>
	<path d="M125.5,59.7c0.4,0,0.8-0.1,1.2-0.4c0.3-0.3,0.5-0.6,0.6-1h1.2c0,0.4-0.2,0.8-0.4,1.2c-0.3,0.4-0.6,0.7-1.1,0.9   c-0.4,0.2-0.9,0.3-1.4,0.3c-1,0-1.8-0.3-2.4-1c-0.6-0.7-0.9-1.6-0.9-2.7v-0.2c0-0.7,0.1-1.3,0.4-1.9c0.3-0.6,0.6-1,1.1-1.3   c0.5-0.3,1.1-0.5,1.7-0.5c0.8,0,1.5,0.2,2,0.7c0.5,0.5,0.8,1.1,0.9,1.9h-1.2c0-0.5-0.2-0.9-0.5-1.2c-0.3-0.3-0.7-0.5-1.2-0.5   c-0.6,0-1.1,0.2-1.5,0.7c-0.3,0.5-0.5,1.1-0.5,2v0.2c0,0.8,0.2,1.5,0.5,1.9C124.4,59.5,124.9,59.7,125.5,59.7z"/>
	<path d="M134.7,54.2c0.6-0.7,1.3-1,2.2-1c1.5,0,2.3,0.9,2.3,2.6v4.8h-1.2v-4.8c0-0.5-0.1-0.9-0.4-1.2c-0.2-0.3-0.6-0.4-1.1-0.4   c-0.4,0-0.8,0.1-1.1,0.3c-0.3,0.2-0.5,0.5-0.7,0.9v5.2h-1.2V50.2h1.2V54.2z"/>
	<path d="M145.8,53.3l0,0.9c0.6-0.7,1.3-1.1,2.2-1.1c1.5,0,2.3,0.9,2.3,2.6v4.8h-1.2v-4.8c0-0.5-0.1-0.9-0.4-1.2   c-0.2-0.3-0.6-0.4-1.1-0.4c-0.4,0-0.8,0.1-1.1,0.3c-0.3,0.2-0.5,0.5-0.7,0.9v5.2h-1.2v-7.3H145.8z"/>
	<path d="M155.5,56.9c0-0.7,0.1-1.4,0.4-1.9c0.3-0.6,0.7-1,1.2-1.3c0.5-0.3,1.1-0.5,1.7-0.5c1,0,1.8,0.3,2.4,1   c0.6,0.7,0.9,1.6,0.9,2.7V57c0,0.7-0.1,1.3-0.4,1.9c-0.3,0.6-0.7,1-1.2,1.3c-0.5,0.3-1.1,0.5-1.7,0.5c-1,0-1.8-0.3-2.4-1   C155.8,59,155.5,58.1,155.5,56.9L155.5,56.9z M156.8,57c0,0.8,0.2,1.5,0.6,1.9c0.4,0.5,0.9,0.7,1.5,0.7c0.6,0,1.1-0.2,1.5-0.7   c0.4-0.5,0.6-1.2,0.6-2.1c0-0.8-0.2-1.4-0.6-1.9c-0.4-0.5-0.9-0.7-1.5-0.7c-0.6,0-1.1,0.2-1.5,0.7C157,55.4,156.8,56.1,156.8,57z"/>
	<path d="M168.7,60.6h-1.2V50.2h1.2V60.6z"/>
	<path d="M174,56.9c0-0.7,0.1-1.4,0.4-1.9c0.3-0.6,0.7-1,1.2-1.3c0.5-0.3,1.1-0.5,1.7-0.5c1,0,1.8,0.3,2.4,1   c0.6,0.7,0.9,1.6,0.9,2.7V57c0,0.7-0.1,1.3-0.4,1.9c-0.3,0.6-0.7,1-1.2,1.3c-0.5,0.3-1.1,0.5-1.7,0.5c-1,0-1.8-0.3-2.4-1   C174.3,59,174,58.1,174,56.9L174,56.9z M175.2,57c0,0.8,0.2,1.5,0.6,1.9s0.9,0.7,1.5,0.7c0.6,0,1.1-0.2,1.5-0.7   c0.4-0.5,0.6-1.2,0.6-2.1c0-0.8-0.2-1.4-0.6-1.9c-0.4-0.5-0.9-0.7-1.5-0.7c-0.6,0-1.1,0.2-1.5,0.7C175.4,55.4,175.2,56.1,175.2,57z   "/>
	<path d="M185.5,56.9c0-1.1,0.3-2,0.8-2.7s1.2-1,2.1-1c0.9,0,1.6,0.3,2.1,0.9l0.1-0.8h1.1v7.1c0,0.9-0.3,1.7-0.8,2.2   c-0.6,0.5-1.3,0.8-2.3,0.8c-0.5,0-1-0.1-1.5-0.3c-0.5-0.2-0.9-0.5-1.2-0.9l0.6-0.7c0.5,0.7,1.2,1,2,1c0.6,0,1.1-0.2,1.4-0.5   c0.3-0.3,0.5-0.8,0.5-1.4v-0.6c-0.5,0.6-1.2,0.9-2,0.9c-0.9,0-1.5-0.3-2.1-1C185.7,59,185.5,58.1,185.5,56.9z M186.7,57   c0,0.8,0.2,1.5,0.5,1.9c0.3,0.5,0.8,0.7,1.4,0.7c0.8,0,1.4-0.4,1.7-1.1v-3.3c-0.4-0.7-1-1-1.7-1c-0.6,0-1.1,0.2-1.4,0.7   S186.7,56.1,186.7,57z"/>
	<path d="M199.5,58.8l1.7-5.5h1.3l-2.9,8.4c-0.5,1.2-1.2,1.8-2.2,1.8l-0.2,0l-0.5-0.1v-1l0.3,0c0.4,0,0.8-0.1,1-0.3   c0.2-0.2,0.4-0.5,0.6-0.9l0.3-0.7l-2.6-7.2h1.4L199.5,58.8z"/>
	<path d="M217.3,56.2c-1.1-0.3-1.9-0.7-2.4-1.2c-0.5-0.5-0.8-1-0.8-1.7c0-0.8,0.3-1.4,0.9-1.9c0.6-0.5,1.4-0.8,2.4-0.8   c0.7,0,1.3,0.1,1.8,0.4c0.5,0.3,0.9,0.6,1.2,1.1c0.3,0.5,0.4,1,0.4,1.5h-1.3c0-0.6-0.2-1.1-0.6-1.4c-0.4-0.3-0.9-0.5-1.6-0.5   c-0.6,0-1.1,0.1-1.5,0.4c-0.4,0.3-0.5,0.7-0.5,1.2c0,0.4,0.2,0.7,0.5,1c0.3,0.3,0.9,0.5,1.7,0.8c0.8,0.2,1.5,0.5,1.9,0.8   c0.5,0.3,0.8,0.6,1,1c0.2,0.4,0.3,0.8,0.3,1.3c0,0.8-0.3,1.4-0.9,1.9c-0.6,0.5-1.5,0.7-2.5,0.7c-0.7,0-1.3-0.1-1.9-0.4   c-0.6-0.3-1-0.6-1.4-1.1c-0.3-0.4-0.5-1-0.5-1.5h1.3c0,0.6,0.2,1.1,0.7,1.4c0.4,0.3,1,0.5,1.8,0.5c0.7,0,1.2-0.1,1.6-0.4   c0.4-0.3,0.5-0.7,0.5-1.1s-0.2-0.9-0.5-1.1C218.8,56.7,218.2,56.5,217.3,56.2z"/>
	<path d="M225.7,56.9c0-0.7,0.1-1.4,0.4-1.9c0.3-0.6,0.7-1,1.2-1.3c0.5-0.3,1.1-0.5,1.7-0.5c1,0,1.8,0.3,2.4,1   c0.6,0.7,0.9,1.6,0.9,2.7V57c0,0.7-0.1,1.3-0.4,1.9c-0.3,0.6-0.7,1-1.2,1.3c-0.5,0.3-1.1,0.5-1.7,0.5c-1,0-1.8-0.3-2.4-1   C226,59,225.7,58.1,225.7,56.9L225.7,56.9z M227,57c0,0.8,0.2,1.5,0.6,1.9s0.9,0.7,1.5,0.7c0.6,0,1.1-0.2,1.5-0.7   c0.4-0.5,0.6-1.2,0.6-2.1c0-0.8-0.2-1.4-0.6-1.9c-0.4-0.5-0.9-0.7-1.5-0.7c-0.6,0-1.1,0.2-1.5,0.7C227.1,55.4,227,56.1,227,57z"/>
	<path d="M238.9,60.6h-1.2V50.2h1.2V60.6z"/>
	<path d="M249,59.9c-0.5,0.6-1.2,0.9-2.1,0.9c-0.8,0-1.4-0.2-1.8-0.7c-0.4-0.5-0.6-1.1-0.6-2v-4.8h1.2V58c0,1.1,0.4,1.7,1.3,1.7   c1,0,1.6-0.4,1.9-1.1v-5.3h1.2v7.3H249L249,59.9z"/>
	<path d="M257.4,51.5v1.8h1.4v1h-1.4v4.5c0,0.3,0.1,0.5,0.2,0.7c0.1,0.1,0.3,0.2,0.6,0.2c0.1,0,0.3,0,0.6-0.1v1   c-0.3,0.1-0.6,0.1-1,0.1c-0.6,0-1-0.2-1.3-0.5s-0.4-0.8-0.4-1.4v-4.5h-1.3v-1h1.3v-1.8H257.4z"/>
	<path d="M263.8,51.4c0-0.2,0.1-0.4,0.2-0.5c0.1-0.1,0.3-0.2,0.6-0.2c0.2,0,0.4,0.1,0.6,0.2s0.2,0.3,0.2,0.5c0,0.2-0.1,0.4-0.2,0.5   s-0.3,0.2-0.6,0.2c-0.2,0-0.4-0.1-0.6-0.2C263.8,51.7,263.8,51.6,263.8,51.4z M265.1,60.6h-1.2v-7.3h1.2V60.6z"/>
	<path d="M270.4,56.9c0-0.7,0.1-1.4,0.4-1.9c0.3-0.6,0.7-1,1.2-1.3c0.5-0.3,1.1-0.5,1.7-0.5c1,0,1.8,0.3,2.4,1   c0.6,0.7,0.9,1.6,0.9,2.7V57c0,0.7-0.1,1.3-0.4,1.9c-0.3,0.6-0.7,1-1.2,1.3c-0.5,0.3-1.1,0.5-1.7,0.5c-1,0-1.8-0.3-2.4-1   C270.7,59,270.4,58.1,270.4,56.9L270.4,56.9z M271.6,57c0,0.8,0.2,1.5,0.6,1.9c0.4,0.5,0.9,0.7,1.5,0.7c0.6,0,1.1-0.2,1.5-0.7   c0.4-0.5,0.6-1.2,0.6-2.1c0-0.8-0.2-1.4-0.6-1.9c-0.4-0.5-0.9-0.7-1.5-0.7c-0.6,0-1.1,0.2-1.5,0.7C271.8,55.4,271.6,56.1,271.6,57z   "/>
	<path d="M283.4,53.3l0,0.9c0.6-0.7,1.3-1.1,2.2-1.1c1.5,0,2.3,0.9,2.3,2.6v4.8h-1.2v-4.8c0-0.5-0.1-0.9-0.4-1.2   c-0.2-0.3-0.6-0.4-1.1-0.4c-0.4,0-0.8,0.1-1.1,0.3c-0.3,0.2-0.5,0.5-0.7,0.9v5.2h-1.2v-7.3H283.4z"/>
	<path d="M297.7,58.7c0-0.3-0.1-0.6-0.4-0.8c-0.3-0.2-0.7-0.3-1.3-0.5c-0.6-0.1-1.1-0.3-1.5-0.5c-0.4-0.2-0.6-0.4-0.8-0.7   c-0.2-0.3-0.3-0.6-0.3-0.9c0-0.6,0.3-1.1,0.8-1.5c0.5-0.4,1.2-0.6,1.9-0.6c0.8,0,1.5,0.2,2,0.6c0.5,0.4,0.8,1,0.8,1.6h-1.3   c0-0.3-0.1-0.6-0.4-0.9c-0.3-0.2-0.7-0.4-1.1-0.4c-0.5,0-0.8,0.1-1.1,0.3c-0.3,0.2-0.4,0.5-0.4,0.8c0,0.3,0.1,0.5,0.4,0.7   c0.2,0.2,0.7,0.3,1.3,0.4c0.6,0.1,1.1,0.3,1.5,0.5s0.7,0.4,0.9,0.7c0.2,0.3,0.3,0.6,0.3,1c0,0.7-0.3,1.2-0.8,1.6   c-0.5,0.4-1.2,0.6-2,0.6c-0.6,0-1.1-0.1-1.6-0.3c-0.4-0.2-0.8-0.5-1.1-0.9c-0.3-0.4-0.4-0.8-0.4-1.2h1.2c0,0.4,0.2,0.8,0.5,1   c0.3,0.2,0.7,0.4,1.2,0.4c0.5,0,0.9-0.1,1.1-0.3C297.5,59.3,297.7,59,297.7,58.7z"/>
	<path d="M318.6,57.5c-0.1,1-0.5,1.8-1.2,2.4c-0.6,0.6-1.5,0.8-2.6,0.8c-1.2,0-2.1-0.4-2.8-1.2c-0.7-0.8-1-1.9-1-3.3v-0.9   c0-0.9,0.2-1.7,0.5-2.4c0.3-0.7,0.8-1.2,1.4-1.6c0.6-0.4,1.3-0.6,2.1-0.6c1,0,1.9,0.3,2.5,0.9c0.6,0.6,1,1.4,1.1,2.4h-1.3   c-0.1-0.8-0.4-1.4-0.7-1.7c-0.4-0.4-0.9-0.5-1.6-0.5c-0.8,0-1.5,0.3-1.9,0.9s-0.7,1.5-0.7,2.6v1c0,1.1,0.2,1.9,0.7,2.5   c0.4,0.6,1.1,0.9,1.9,0.9c0.7,0,1.3-0.2,1.7-0.5c0.4-0.3,0.6-0.9,0.8-1.7H318.6z"/>
	<path d="M323.4,56.9c0-0.7,0.1-1.4,0.4-1.9c0.3-0.6,0.7-1,1.2-1.3c0.5-0.3,1.1-0.5,1.7-0.5c1,0,1.8,0.3,2.4,1   c0.6,0.7,0.9,1.6,0.9,2.7V57c0,0.7-0.1,1.3-0.4,1.9c-0.3,0.6-0.7,1-1.2,1.3c-0.5,0.3-1.1,0.5-1.7,0.5c-1,0-1.8-0.3-2.4-1   C323.7,59,323.4,58.1,323.4,56.9L323.4,56.9z M324.7,57c0,0.8,0.2,1.5,0.6,1.9c0.4,0.5,0.9,0.7,1.5,0.7c0.6,0,1.1-0.2,1.5-0.7   c0.4-0.5,0.6-1.2,0.6-2.1c0-0.8-0.2-1.4-0.6-1.9c-0.4-0.5-0.9-0.7-1.5-0.7c-0.6,0-1.1,0.2-1.5,0.7S324.7,56.1,324.7,57z"/>
	<path d="M336.4,53.3l0,0.8c0.5-0.6,1.3-0.9,2.2-0.9c1,0,1.7,0.4,2.1,1.2c0.2-0.4,0.6-0.6,0.9-0.9c0.4-0.2,0.8-0.3,1.4-0.3   c1.6,0,2.4,0.8,2.4,2.5v4.9h-1.2v-4.8c0-0.5-0.1-0.9-0.4-1.2c-0.2-0.3-0.6-0.4-1.2-0.4c-0.5,0-0.8,0.1-1.2,0.4   c-0.3,0.3-0.5,0.6-0.5,1.1v4.8h-1.3v-4.8c0-1.1-0.5-1.6-1.6-1.6c-0.8,0-1.4,0.3-1.7,1v5.3h-1.2v-7.3H336.4z"/>
	<path d="M357.1,57c0,1.1-0.3,2-0.8,2.7s-1.2,1-2.1,1c-0.9,0-1.6-0.3-2.1-0.8v3.5h-1.2V53.3h1.1l0.1,0.8c0.5-0.6,1.2-0.9,2.1-0.9   c0.9,0,1.6,0.3,2.1,1c0.5,0.7,0.8,1.6,0.8,2.8V57z M355.8,56.9c0-0.8-0.2-1.5-0.5-1.9c-0.4-0.5-0.8-0.7-1.4-0.7   c-0.8,0-1.3,0.3-1.7,1v3.5c0.4,0.7,0.9,1,1.7,1c0.6,0,1.1-0.2,1.4-0.7C355.6,58.5,355.8,57.8,355.8,56.9z"/>
	<path d="M366.8,60.6c-0.1-0.1-0.1-0.4-0.2-0.8c-0.6,0.6-1.3,0.9-2.1,0.9c-0.7,0-1.3-0.2-1.8-0.6c-0.5-0.4-0.7-0.9-0.7-1.5   c0-0.8,0.3-1.4,0.9-1.8c0.6-0.4,1.4-0.6,2.4-0.6h1.2v-0.6c0-0.4-0.1-0.8-0.4-1c-0.3-0.3-0.6-0.4-1.2-0.4c-0.4,0-0.8,0.1-1.1,0.3   c-0.3,0.2-0.5,0.5-0.5,0.8h-1.3c0-0.4,0.1-0.7,0.4-1.1s0.6-0.6,1.1-0.8c0.4-0.2,0.9-0.3,1.5-0.3c0.8,0,1.5,0.2,2,0.6s0.7,1,0.7,1.7   v3.4c0,0.7,0.1,1.2,0.3,1.6v0.1H366.8z M364.7,59.7c0.4,0,0.8-0.1,1.1-0.3c0.4-0.2,0.6-0.5,0.8-0.8v-1.5h-1c-1.5,0-2.3,0.4-2.3,1.3   c0,0.4,0.1,0.7,0.4,0.9S364.3,59.7,364.7,59.7z"/>
	<path d="M374.5,53.3l0,0.9c0.6-0.7,1.3-1.1,2.2-1.1c1.5,0,2.3,0.9,2.3,2.6v4.8h-1.2v-4.8c0-0.5-0.1-0.9-0.4-1.2   c-0.2-0.3-0.6-0.4-1.1-0.4c-0.4,0-0.8,0.1-1.1,0.3c-0.3,0.2-0.5,0.5-0.7,0.9v5.2h-1.2v-7.3H374.5z"/>
	<path d="M387,58.8l1.7-5.5h1.3l-2.9,8.4c-0.5,1.2-1.2,1.8-2.2,1.8l-0.2,0l-0.5-0.1v-1l0.3,0c0.4,0,0.8-0.1,1-0.3   c0.2-0.2,0.4-0.5,0.6-0.9l0.3-0.7l-2.6-7.2h1.4L387,58.8z"/>
</g>
</svg>